<?xml version="1.0" standalone="no"?><!DOCTYPE svg PUBLIC "-//W3C//DTD SVG 1.1//EN" "http://www.w3.org/Graphics/SVG/1.1/DTD/svg11.dtd"><svg t="1591859880069" class="icon" viewBox="0 0 1024 1024" version="1.1" xmlns="http://www.w3.org/2000/svg" p-id="1147" xmlns:xlink="http://www.w3.org/1999/xlink" width="200" height="200"><defs><style type="text/css"></style></defs><path d="M807.89333333-1.92H217.38666667c-86.61333333 0-146.77333333 60.16-146.77333334 146.77333333v775.46666667c0 21.65333333 5.86666667 43.30666667 17.70666667 61.01333333 33.49333333 55.14666667 95.57333333 72.85333333 150.72 39.36L494.93333333 865.28c11.84-7.89333333 27.52-7.89333333 41.38666667 0l248 153.49333333c17.70666667 11.84 39.36 17.70666667 61.01333333 17.70666667 64.96 0 107.41333333-53.12 107.41333334-118.08V144.85333333C954.66666667 58.24 894.4-1.92 807.89333333-1.92zM886.61333333 918.4c0 21.65333333-17.70666667 50.02666667-39.36 50.02666667-7.89333333 0-13.76-1.92-19.73333333-5.86666667l-248-160c-37.44-23.57333333-84.58666667-23.57333333-122.02666667 0L201.6 964.48c-17.70666667 11.84-43.30666667-4.8-53.12-24.42666667-3.94666667-5.86666667-8-13.76-8-19.73333333v-775.46666667c0-43.30666667 37.54666667-78.72 80.85333333-78.72h590.50666667c43.30666667 0 78.72 35.41333333 78.72 78.72l-4.26666667 773.54666667h0.32z m2.13333334 0" p-id="1148"></path><path d="M670.08 223.57333333H355.2c-21.65333333 0-39.36 17.70666667-39.36 39.36 0 21.65333333 17.70666667 35.09333333 39.36 35.09333334h314.88c21.65333333 0 39.36-13.44 39.36-35.09333334 0-21.65333333-17.70666667-39.36-39.36-39.36z m0 0M554.77333333 420.05333333H362.88c-21.65333333 0-39.36 13.44-39.36 35.09333334 0 21.65333333 17.70666667 39.36 39.36 39.36h191.89333333c21.65333333 0 39.36-17.70666667 39.36-39.36 0-21.65333333-17.70666667-35.09333333-39.36-35.09333334z m0 0" p-id="1149"></path></svg>