<?xml version="1.0" standalone="no"?><!DOCTYPE svg PUBLIC "-//W3C//DTD SVG 1.1//EN" "http://www.w3.org/Graphics/SVG/1.1/DTD/svg11.dtd"><svg t="1575343603546" class="icon" viewBox="0 0 1024 1024" version="1.1" xmlns="http://www.w3.org/2000/svg" p-id="6493" xmlns:xlink="http://www.w3.org/1999/xlink" width="200" height="200"><defs><style type="text/css"></style></defs><path d="M353.574293 184.604438c13.731746 0 24.904203-11.172457 24.904203-24.90625L378.478496 70.310346c0-13.731746-11.171434-24.90318-24.904203-24.90318s-24.904203 11.171434-24.904203 24.90318l0 89.387843C328.67009 173.430958 339.842547 184.604438 353.574293 184.604438z" p-id="6494"></path><path d="M695.859983 184.604438c13.734816 0 24.908296-11.172457 24.908296-24.90625L720.768279 70.310346c0-13.731746-11.17348-24.90318-24.908296-24.90318-13.730723 0-24.902156 11.171434-24.902156 24.90318l0 89.387843C670.957827 173.430958 682.12926 184.604438 695.859983 184.604438z" p-id="6495"></path><path d="M432.061878 139.91154l188.583053 0c13.734816 0 24.908296-11.172457 24.908296-24.90625 0-13.732769-11.17348-24.905226-24.908296-24.905226L432.061878 90.100064c-13.733792 0-24.908296 11.172457-24.908296 24.905226C407.153582 128.73806 418.328086 139.91154 432.061878 139.91154z" p-id="6496"></path><path d="M251.104503 543.384801l547.225269 0c13.731746-0.001023 24.90318-12.534478 24.90318-27.939329 0-15.405875-11.171434-27.940352-24.90318-27.940352L251.104503 487.50512c-13.731746 0-24.90318 12.534478-24.90318 27.940352C226.201324 530.851347 237.372757 543.384801 251.104503 543.384801z" p-id="6497"></path><path d="M842.801636 87.919399l-66.820871 0c-0.390903 0-0.785899 0.027629-1.181919 0.057305-0.274246 0.020466-0.548492 0.042979-0.825808 0.042979-14.709003 0-26.675546 12.009522-26.675546 26.770713 0 14.141068 11.07729 25.752524 25.036209 26.668383l0 0.630357 71.720462 0c31.384801 0 56.917314 25.53149 56.917314 56.913221l0 105.402585c0 1.446955-1.177825 2.623757-2.625804 2.623757L155.450956 307.028699c-1.445932 0-2.62171-1.176802-2.62171-2.623757L152.829246 199.00645c0-31.382754 25.529443-56.914244 56.909128-56.914244l63.565734 0 0.149403 0.004093 0.2415-0.005117 0-0.270153c14.546298-0.255827 26.342971-12.232602 26.342971-26.801413 0-14.851243-11.93482-26.932396-26.605961-26.932396-0.224104 0-0.435928-0.034792-0.647753-0.062422-0.354064-0.046049-0.795109-0.104377-1.290389-0.104377l-60.505026 0c-61.340043 0-111.243617 49.903573-111.243617 111.243617l0 635.918287c0 60.879556 49.526997 110.408599 110.403482 110.408599l632.657011 0c61.340043 0 111.243617-49.901527 111.243617-111.2385L954.049347 199.165062C954.05037 137.823995 904.143727 87.919399 842.801636 87.919399zM152.829246 359.462908c0-1.445932 1.175779-2.62171 2.62171-2.62171l742.894717 0c1.447978 0 2.625804 1.175779 2.625804 2.62171l0 475.786217c0 31.519878-25.647123 57.161884-57.172117 57.161884L210.237747 892.411009c-31.654954 0-57.408501-25.756617-57.408501-57.414641L152.829246 359.462908z" p-id="6498"></path><path d="M251.104503 740.315986l547.239596 0c0 0 0 0 0.001023 0 6.711865 0 13.002129-2.949168 17.712407-8.303106 4.626367-5.260817 7.175423-12.234649 7.175423-19.636223 0-15.405875-11.171434-27.939329-24.90318-27.939329L251.104503 684.437327c-13.731746 0-24.90318 12.533454-24.90318 27.939329C226.201324 727.782531 237.372757 740.315986 251.104503 740.315986z" p-id="6499"></path></svg>