<?xml version="1.0" standalone="no"?><!DOCTYPE svg PUBLIC "-//W3C//DTD SVG 1.1//EN" "http://www.w3.org/Graphics/SVG/1.1/DTD/svg11.dtd"><svg t="1575343369566" class="icon" viewBox="0 0 1024 1024" version="1.1" xmlns="http://www.w3.org/2000/svg" p-id="6488" xmlns:xlink="http://www.w3.org/1999/xlink" width="200" height="200"><defs><style type="text/css"></style></defs><path d="M512 740.225a28.11 28.11 0 0 1-13.155-2.775l-267.36-112.215a34.5 34.5 0 0 1-21.48-31.92v-451.5a35.19 35.19 0 0 1 15.24-29.085 34.14 34.14 0 0 1 32.55-2.775l146.835 61.65a34.5 34.5 0 0 1-26.325 63.72l-99-41.565v376.11l198.09 83.115v-399a34.5 34.5 0 0 1 21.465-31.86l267.36-112.215a36.12 36.12 0 0 1 32.55 2.775 34.305 34.305 0 0 1 15.24 29.085v451.545a34.5 34.5 0 0 1-21.465 31.86l-146.145 60.96a34.5 34.5 0 0 1-26.325-63.72l124.68-52.635v-376.05l-198.12 83.085v428.055a35.19 35.19 0 0 1-15.24 29.085 32.4 32.4 0 0 1-19.395 6.27z" p-id="6489"></path><path d="M512 917a37.5 37.5 0 0 1-12.09-2.04L83.495 753.59A34.11 34.11 0 0 1 62 721.58V317.12a33.585 33.585 0 1 1 67.17 0v380.625L512 846.245l382.83-148.5v-353.4a33.585 33.585 0 1 1 67.17 0v377.22a34.815 34.815 0 0 1-21.495 32.01L524.09 914.945A32.13 32.13 0 0 1 512 917z" p-id="6490"></path></svg>