<svg t="1571640682267" class="icon" viewBox="0 0 1024 1024" version="1.1" xmlns="http://www.w3.org/2000/svg" p-id="8552" width="200" height="200"><path d="M950.356 525.542c-25.024-47.568-72.172-79.842-123.108-84.192-18.476-1.59-23.807-4.958-29.047-27.41-13.938-59.589-47.428-100.421-96.867-118.01-29.794-10.663-61.741-10.523-100.516 0.281-19.598 5.566-24.744 3.648-32.93-6.548-22.216-27.596-43.312-46.82-66.37-60.431-68.57-40.553-146.26-34.285-207.909 16.604-55.099 45.463-81.338 104.117-78.018 174.324 0.608 13.704 0.093 18.336 0.14 18.85-2.62 2.432-16.09 7.156-21.188 8.933-39.477 13.798-72.873 36.67-102.06 69.927-59.729 68.055-39.01 159.497 7.999 219.929 28.672 36.95 68.897 55.613 119.74 55.613 4.07 0 8.185-0.14 12.348-0.374 13.19-0.748 23.293-12.068 22.544-25.258-0.702-13.143-10.477-23.9-25.257-22.544-41.628 2.338-70.254-9.401-91.582-36.81-32.367-41.628-54.304-108.234-9.775-158.936 23.574-26.895 50.375-45.323 81.806-56.316 42.517-14.826 55.38-27.129 53.088-75.258-2.573-55.099 17.306-99.3 60.712-135.128 46.07-38.074 101.919-42.61 153.09-12.302 17.913 10.571 34.892 26.24 53.368 49.206 26.661 33.07 57.063 29.982 83.21 22.639 28.672-8.093 51.404-8.466 71.47-1.31 34.285 12.208 55.94 39.663 66.324 83.865 9.729 41.535 31.152 60.759 71.61 64.174 34.285 2.947 67.541 26.006 84.753 58.794 18.522 35.173 16.464 75.96-5.705 114.875-28.392 49.766-65.623 76.053-117.308 82.648-13.096 1.684-22.404 13.658-20.721 26.802 1.683 13.096 13.845 22.264 26.801 20.72 65.95-8.418 117.401-44.247 152.856-106.456 30.076-52.807 32.461-111.46 6.502-160.9z" p-id="8553"></path><path d="M623.129 661.186l-80.496 79.067V469.228c0-13.237-10.711-23.949-23.949-23.949-13.236 0-23.948 10.711-23.948 23.949V744.28l-93.921-82.955c-9.963-8.746-25.071-7.765-33.817 2.105-8.747 9.916-7.811 25.07 2.104 33.817l133.725 118.056c1.157 1.017 2.55 1.535 3.835 2.295 1.088 0.646 2.03 1.447 3.216 1.918 2.83 1.122 5.8 1.774 8.805 1.774 3.105 0 6.186-0.637 9.097-1.833 2.164-0.89 3.976-2.33 5.766-3.783 0.614-0.49 1.357-0.699 1.929-1.26l0.116-0.113a0.17 0.17 0 0 1 0.047-0.047L656.711 695.33c9.448-9.26 9.541-24.416 0.28-33.864-9.212-9.401-24.367-9.542-33.862-0.28z" p-id="8554"></path></svg>
