<?xml version="1.0" standalone="no"?><!DOCTYPE svg PUBLIC "-//W3C//DTD SVG 1.1//EN" "http://www.w3.org/Graphics/SVG/1.1/DTD/svg11.dtd"><svg t="1591859883514" class="icon" viewBox="0 0 1034 1024" version="1.1" xmlns="http://www.w3.org/2000/svg" p-id="1267" xmlns:xlink="http://www.w3.org/1999/xlink" width="201.953125" height="200"><defs><style type="text/css"></style></defs><path d="M923.09325875 32H91.35033219C58.57352469 32 32 63.26790125 32 101.91267875v810.6182325c0 38.64477844 26.57352469 69.91267875 59.35033219 69.91267969h831.74292656c32.7768075 0 59.35033219-31.26790125 59.35033219-69.91267969V101.91267875c0.41914031-38.64477844-26.57352469-69.91267875-59.35033219-69.91267875z m0 69.91267875v232.45546688H91.35033219V101.91267875z m0 292.0572825v234.71882719H91.35033219v-234.71882719zM91.35033219 912.53091125V688.54208844h831.74292656v223.98882281z" p-id="1268"></path><path d="M186.49528437 246.68389812h137.56199813a29.8428225 29.8428225 0 0 0 0-59.60181656H186.49528437a29.8428225 29.8428225 0 0 0 1e-8 59.60181657zM186.49528437 541.25602531h137.56199813a29.8428225 29.8428225 0 0 0 0-59.60181656H186.49528437a29.8428225 29.8428225 0 0 0 1e-8 59.60181656zM324.0572825 776.22633594H186.49528437a29.8428225 29.8428225 0 0 0 1e-8 59.60181656h137.56199812a29.8428225 29.8428225 0 0 0 0-59.60181656z" p-id="1269"></path></svg>