<?xml version="1.0" standalone="no"?><!DOCTYPE svg PUBLIC "-//W3C//DTD SVG 1.1//EN" "http://www.w3.org/Graphics/SVG/1.1/DTD/svg11.dtd"><svg t="1561520673299" class="icon" viewBox="0 0 1024 1024" version="1.1" xmlns="http://www.w3.org/2000/svg" p-id="1535" xmlns:xlink="http://www.w3.org/1999/xlink" width="200" height="200"><defs><style type="text/css"></style></defs><path d="M243.712 951.744h564.864c56.384 0 102.784-42.112 102.784-93.376v-302.72c0-51.328-46.4-93.44-102.784-93.44H243.712c-56.32 0-102.784 42.112-102.784 93.44v302.72c0 51.264 46.4 93.44 102.784 93.44z m0 46.08c-84.736 0-153.984-62.72-153.984-139.456v-302.72c0-76.736 69.248-139.52 153.984-139.52h564.864c84.736 0 153.984 62.784 153.984 139.52v302.72c0 76.672-69.248 139.52-153.984 139.52H243.712z" p-id="1536"></path><path d="M500.48 932.864h51.392v-103.36H500.48z" p-id="1537"></path><path d="M672 666.752a153.6 153.6 0 1 1-307.2 0 153.6 153.6 0 0 1 307.2 0z m-64 0a89.6 89.6 0 1 0-179.2 0 89.6 89.6 0 0 0 179.2 0z" p-id="1538"></path><path d="M269.44 286.592C269.44 155.392 381.44 53.952 520.96 53.952V2.24h-2.56v51.712c137.152 0 241.344 99.328 241.344 232.64v51.712h51.392v-51.712c0-162.56-127.872-284.352-292.736-284.352v51.712h2.56V2.24c-166.72 0-302.976 123.328-302.976 284.352v129.28h51.392v-129.28z" p-id="1539"></path></svg>