<?xml version="1.0" standalone="no"?><!DOCTYPE svg PUBLIC "-//W3C//DTD SVG 1.1//EN" "http://www.w3.org/Graphics/SVG/1.1/DTD/svg11.dtd"><svg t="1650448406969" class="icon" viewBox="0 0 1024 1024" version="1.1" xmlns="http://www.w3.org/2000/svg" p-id="3192" xmlns:xlink="http://www.w3.org/1999/xlink" width="200" height="200"><defs><style type="text/css">@font-face { font-family: feedback-iconfont; src: url("//at.alicdn.com/t/font_1031158_u69w8yhxdu.woff2?t=1630033759944") format("woff2"), url("//at.alicdn.com/t/font_1031158_u69w8yhxdu.woff?t=1630033759944") format("woff"), url("//at.alicdn.com/t/font_1031158_u69w8yhxdu.ttf?t=1630033759944") format("truetype"); }
</style></defs><path d="M503.09729331 372.16106448c-96.12088807 0-174.33833255 78.17637915-174.33833255 174.33833257 0 96.09041982 78.21877009 174.33833255 174.33833255 174.33833255 96.12618662 0 174.33833255-78.24791403 174.33833256-174.33833255C677.43562587 450.33744363 599.22347993 372.16106448 503.09729331 372.16106448z" p-id="3193"></path><path d="M904.07744582 163.02527522l-174.33833255 0-104.60432488-105.97672316-244.07366584 0-104.60432488 105.97672316-174.33833255 0c-57.7811591 0-96.9090897 29.34627903-96.90908971 87.09696988l0 592.75563078c0 57.75069085 39.12793059 122.9210757 96.90908971 122.9210757l801.96030502 0c57.78910756 0 113.20698478-65.17038614 113.20698477-122.9210757l0-592.75563078C1017.28443061 192.37287856 961.8665521 163.02527522 904.07744582 163.02527522zM503.09729331 825.44470441c-153.80666689 0-278.94398175-125.17440597-278.94398175-278.94398175 0-153.84508361 125.13731486-278.94398175 278.94398175-278.94398175 153.80534257 0 278.94398175 125.10022245 278.94398175 278.94398175C782.04127506 700.27029842 656.90263588 825.44470441 503.09729331 825.44470441z" p-id="3194"></path></svg>