<?xml version="1.0" standalone="no"?><!DOCTYPE svg PUBLIC "-//W3C//DTD SVG 1.1//EN" "http://www.w3.org/Graphics/SVG/1.1/DTD/svg11.dtd"><svg t="1575344384194" class="icon" viewBox="0 0 1024 1024" version="1.1" xmlns="http://www.w3.org/2000/svg" p-id="6550" xmlns:xlink="http://www.w3.org/1999/xlink" width="200" height="200"><defs><style type="text/css"></style></defs><path d="M210.10442809 97.22993778h60.69535175v822.24447715h-60.69535175zM450.72210603 377.90432825a30.51411683 30.51411683 0 0 1-30.34767588-30.34767588V110.90581049a30.34767587 30.34767587 0 0 1 60.69535175 0v192.96017522l47.93490319-17.58722731a30.15349475 30.15349475 0 0 1 21.83146268 0.30514176l40.66699605 16.08926094V117.56343523a30.34767587 30.34767587 0 1 1 60.69535061 0v229.99321714a30.31993571 30.31993571 0 0 1-41.61015808 28.21168811l-71.29207238-28.51682873-77.67229668 28.82196935a34.36999111 34.36999111 0 0 1-10.90186126 1.83084715z" p-id="6551"></path><path d="M118.47885938 908.87769429a4.02231523 4.02231523 0 0 1-3.93909589-3.93909589V117.89631715a4.02231523 4.02231523 0 0 1 3.93909589-3.93909589h580.71137507a4.02231523 4.02231523 0 0 1 3.93909476 3.93909589v360.12205284h60.69535175V117.89631715a64.88410795 64.88410795 0 0 0-64.63444651-64.63444764H118.47885938a64.88410795 64.88410795 0 0 0-64.63444765 64.63444764v786.98680207a64.88410795 64.88410795 0 0 0 64.63444765 64.63444651H512v-60.63987144z" p-id="6552"></path><path d="M912.78904889 970.76586951h-276.70755556a57.50523904 57.50523904 0 0 1-57.33879922-57.36653824v-305.1411638a57.50523904 57.50523904 0 0 1 57.33879922-57.33879922h190.54678699a30.34767587 30.34767587 0 0 1 0 60.69535175h-187.19023445v298.26161778h270.02219064v-210.57514383a30.34767587 30.34767587 0 0 1 60.69535176 0v213.9039562a57.56071936 57.56071936 0 0 1-57.36653938 57.56071936z" p-id="6553"></path><path d="M718.30316715 848.15460238a29.15485127 29.15485127 0 0 1-20.33349746-7.87819065 30.26445539 30.26445539 0 0 1-2.41338937-42.77524252l212.37824967-236.65084302a30.29219555 30.29219555 0 0 1 45.21637319 40.36185429l-212.37825081 236.65084302a29.04389063 29.04389063 0 0 1-22.46948522 10.29157888z" p-id="6554"></path></svg>