<?xml version="1.0" standalone="no"?><!DOCTYPE svg PUBLIC "-//W3C//DTD SVG 1.1//EN" "http://www.w3.org/Graphics/SVG/1.1/DTD/svg11.dtd"><svg t="1650448411400" class="icon" viewBox="0 0 1024 1024" version="1.1" xmlns="http://www.w3.org/2000/svg" p-id="3327" xmlns:xlink="http://www.w3.org/1999/xlink" width="200" height="200"><defs><style type="text/css">@font-face { font-family: feedback-iconfont; src: url("//at.alicdn.com/t/font_1031158_u69w8yhxdu.woff2?t=1630033759944") format("woff2"), url("//at.alicdn.com/t/font_1031158_u69w8yhxdu.woff?t=1630033759944") format("woff"), url("//at.alicdn.com/t/font_1031158_u69w8yhxdu.ttf?t=1630033759944") format("truetype"); }
</style></defs><path d="M375.395175 575.415776c13.009983-37.815685 37.572832-100.263605 2.879543-220.99625s-85.276104-167.915518-154.662681-167.915518c0 0-119.171447-6.591725-127.202943 183.874431-8.864135 210.588263 64.56421 262.281263 87.600554 382.840442l174.021536-50.131802a295.84702 295.84702 0 0 1 17.363991-127.671303z m3.902995 194.282417L191.468705 823.646257c9.731468 123.855041 69.646777 223.42478 172.356259 195.496683 106.959409-29.142363 58.076565-175.374575 16.167072-248.057015a12.853863 12.853863 0 0 0-0.693866-1.387732z m269.237268-380.585378c-13.009983-37.815685-37.572832-100.437071-2.879543-221.169716S730.931999 0.027581 800.318577 0.027581c0 0 119.1541-6.591725 127.185596 183.874431 8.881482 210.588263-64.546864 262.45473-87.583207 382.840442l-174.021537-49.958336a295.84702 295.84702 0 0 0-17.346644-127.671303z m-3.902995 194.108951l187.829466 53.948064c-9.731468 124.028507-69.646777 223.42478-172.356259 195.496682-106.959409-29.142363-58.076565-175.374575-16.167073-248.057015l0.693866-1.387731z" p-id="3328"></path></svg>