<svg xmlns="http://www.w3.org/2000/svg" width="287.689" height="139.385" viewBox="0 0 287.689 139.385">
  <g id="logo-彩" transform="translate(-1622 -2549)">
    <g id="logo" transform="translate(459.124 1297.272)">
      <path id="减去_6" data-name="减去 6" d="M1225.979,1340.419a22.385,22.385,0,0,1-2.88-.187l11.44-19.815,7.517,13.019c-.172.184-.347.366-.521.539a22.024,22.024,0,0,1-7,4.715,21.98,21.98,0,0,1-8.56,1.729Zm-5.17-.613h0a21.9,21.9,0,0,1-7.128-3.145,22.042,22.042,0,0,1-7.97-9.681c-.071-.167-.14-.33-.206-.5H1228.5Zm22.757-8.163-11.237-19.463h14.757c.176.594.33,1.2.451,1.806a21.967,21.967,0,0,1-3.31,16.737c-.21.311-.432.622-.66.924h0Zm-23.759-7.364h-15.035c-.129-.472-.245-.951-.342-1.43a22.262,22.262,0,0,1,0-8.868,21.938,21.938,0,0,1,3.31-7.869c.278-.411.574-.82.88-1.21Zm-2.144-8.111h0l-7.517-13.019c.094-.1.188-.194.28-.285a22.025,22.025,0,0,1,7-4.715,21.931,21.931,0,0,1,4.129-1.281,22.234,22.234,0,0,1,7.4-.248l-11.287,19.55Zm28.641-6.189h-22.529l7.462-12.926a22.062,22.062,0,0,1,7.045,3.128,22.036,22.036,0,0,1,7.97,9.682l.052.123Z" fill="#ffcc24"/>
      <path id="路径_20" data-name="路径 20" d="M1430.695,1322.4l.214-.187-.744-.849,1.723-2-.212-.182a184.836,184.836,0,0,0,17.768-27.859,10,10,0,0,0-17.761-9.195,164.671,164.671,0,0,1-15.275,24.107,185.123,185.123,0,0,0-130.908-54.509,182.558,182.558,0,0,0-114.8,40.055l-7.825,6.228,12.454,15.649,7.824-6.226a162.743,162.743,0,0,1,102.346-35.706,165.059,165.059,0,0,1,117.8,49.684,164.394,164.394,0,0,1-117.8,49.7,162.74,162.74,0,0,1-102.346-35.707l-7.824-6.226-12.454,15.649,7.825,6.228a184.485,184.485,0,0,0,245.7-14.446,164.771,164.771,0,0,1,15.283,24.1,10,10,0,1,0,17.761-9.2A184.9,184.9,0,0,0,1430.695,1322.4Z" fill="#ffcc24"/>
    </g>
  </g>
</svg>
